<svg width="100" height="80" viewBox="0 0 100 80" fill="none" xmlns="http://www.w3.org/2000/svg">
<path d="M97.7813 26.2981L93.3529 22.4277C92.8036 21.9472 91.9729 22.0086 91.498 22.5645C91.0231 23.1202 91.0835 23.9601 91.6333 24.4404L96.0613 28.3109C97.6398 29.6906 97.8141 32.1118 96.4501 33.7082L67.6873 67.3676C67.2124 67.9234 67.2728 68.7633 67.8224 69.2437C68.0711 69.4612 68.3772 69.5676 68.6818 69.5676C69.0508 69.5676 69.4174 69.4115 69.6775 69.1073L98.4401 35.4476C100.753 32.7414 100.457 28.6368 97.7813 26.2981Z" fill="#E02826"/>
<path d="M89.9852 19.4837L69.5004 1.57922C68.2041 0.446211 66.549 -0.107779 64.8405 0.0173774C63.1318 0.143055 61.5739 0.934495 60.4536 2.24533L58.5018 4.52943C58.0269 5.08534 58.0872 5.92527 58.6369 6.40556C59.1867 6.8862 60.017 6.82466 60.4919 6.26893L62.4437 3.98483C63.1046 3.21164 64.0236 2.74474 65.0317 2.67052C66.0397 2.5956 67.0158 2.92344 67.7805 3.59181L88.2652 21.4963C88.5139 21.7137 88.82 21.8201 89.1246 21.8201C89.4936 21.8201 89.8602 21.664 90.1203 21.3598C90.595 20.8039 90.5346 19.964 89.9852 19.4837Z" fill="#E02826"/>
<path d="M77.5015 14.7815L42.063 2.7599C38.7095 1.62237 35.067 3.45608 33.9424 6.84712L33.4749 8.25669C33.2439 8.95305 33.615 9.70711 34.3037 9.94074C34.9924 10.1744 35.7376 9.79924 35.9688 9.10254L36.4363 7.69297C37.0997 5.69238 39.2483 4.61065 41.2266 5.2818L76.6653 17.3032C78.6435 17.9744 79.7129 20.1476 79.0494 22.148L62.5609 71.8663C62.3299 72.5627 62.701 73.3166 63.3897 73.5504C63.5284 73.5973 63.6694 73.6197 63.8081 73.6197C64.3577 73.6197 64.8703 73.2684 65.0548 72.7123L81.5433 22.9942C82.6677 19.6033 80.8548 15.9189 77.5015 14.7815Z" fill="#E02826"/>
<path d="M55.7929 11.4469H18.414C14.8774 11.4469 12 14.3568 12 17.9336V70.3739C12 73.9508 14.8774 76.8609 18.414 76.8609H55.7931C59.3297 76.8609 62.2071 73.9508 62.2071 70.3739V17.9336C62.2069 14.3568 59.3297 11.4469 55.7929 11.4469ZM59.5765 70.3739C59.5765 72.484 57.8791 74.2006 55.7929 74.2006H18.414C16.3276 74.2006 14.6304 72.4839 14.6304 70.3739V17.9336C14.6304 15.8235 16.3278 14.107 18.414 14.107H55.7931C57.8795 14.107 59.5767 15.8237 59.5767 17.9336V70.3739H59.5765Z" fill="#E02826"/>
<path d="M56.4771 48.1578H17.7292C17.0029 48.1578 16.4141 48.7534 16.4141 49.488C16.4141 50.2226 17.0029 50.8181 17.7292 50.8181H56.4773C57.2036 50.8181 57.7924 50.2226 57.7924 49.488C57.7923 48.7534 57.2034 48.1578 56.4771 48.1578Z" fill="#E02826"/>
<path d="M51.5579 26.88C51.4032 26.3985 50.9918 26.0475 50.4964 25.9748L42.0568 24.7346L38.2826 17.0001C38.0609 16.5461 37.6039 16.2585 37.1032 16.2585C36.6027 16.2585 36.1455 16.5461 35.9238 17.0001L32.1495 24.7346L23.7099 25.9748C23.2145 26.0475 22.8029 26.3985 22.6484 26.88C22.4937 27.3615 22.6228 27.8899 22.9811 28.2433L29.0882 34.2637L27.6465 42.7649C27.5619 43.2638 27.7648 43.7681 28.1697 44.0657C28.3988 44.2339 28.6702 44.3196 28.9428 44.3196C29.152 44.3196 29.3622 44.269 29.5547 44.167L37.1032 40.1531L44.6518 44.167C45.0949 44.4025 45.6318 44.3632 46.0368 44.0657C46.4419 43.7681 46.6445 43.2638 46.56 42.7649L45.1183 34.2637L51.2252 28.2433C51.5835 27.8899 51.7126 27.3615 51.5579 26.88ZM42.7873 32.847C42.4773 33.1526 42.3358 33.5929 42.409 34.0243L43.5171 40.5583L37.7151 37.4732C37.3318 37.2697 36.8741 37.2697 36.4912 37.4732L30.6892 40.5583L31.7973 34.0243C31.8703 33.5929 31.729 33.1526 31.419 32.847L26.7253 28.2197L33.212 27.2662C33.6403 27.2033 34.0105 26.9312 34.2022 26.5386L37.1031 20.5936L40.004 26.5386C40.1954 26.9311 40.5658 27.2033 40.9941 27.2662L47.481 28.2197L42.7873 32.847Z" fill="#004E96"/>
<rect x="0.394531" y="55.0288" width="23.9209" height="14.7211" fill="white"/>
<path d="M6.59309 58.3277V66.8357H9.88109C11.4771 66.8357 12.5091 65.8397 12.5091 64.4597C12.5091 63.4037 11.8371 62.6477 11.0091 62.4437C11.7171 62.2037 12.2451 61.4957 12.2451 60.6197C12.2451 59.2997 11.3091 58.3277 9.65309 58.3277H6.59309ZM8.22509 61.8437V59.7197H9.38909C10.1931 59.7197 10.6131 60.1277 10.6131 60.7757C10.6131 61.4237 10.1571 61.8437 9.40109 61.8437H8.22509ZM8.22509 65.4557V63.2117H9.59309C10.4211 63.2117 10.8531 63.6797 10.8531 64.3517C10.8531 65.0357 10.3731 65.4557 9.56909 65.4557H8.22509ZM18.1173 66.8357H19.9653L18.1413 63.3557C19.2573 63.0317 19.9533 62.1317 19.9533 60.9437C19.9533 59.4677 18.8973 58.3277 17.2413 58.3277H13.9173V66.8357H15.5853V63.5597H16.4493L18.1173 66.8357ZM15.5853 62.1317V59.7677H16.9293C17.7693 59.7677 18.2613 60.2357 18.2613 60.9557C18.2613 61.6517 17.7693 62.1317 16.9293 62.1317H15.5853ZM27.1659 66.8357H28.9659L25.7259 58.3277H23.8059L20.5419 66.8357H22.2939L23.0019 64.8917H26.4579L27.1659 66.8357ZM24.7299 60.1637L25.9059 63.3797H23.5539L24.7299 60.1637ZM37.314 66.8357V58.3277H35.658V63.9557L32.118 58.3277H30.054V66.8357H31.71V60.7997L35.574 66.8357H37.314ZM40.9093 65.2997V59.8637H42.2413C43.6333 59.8637 44.7853 60.7397 44.7853 62.5877C44.7853 64.4357 43.6213 65.2997 42.2293 65.2997H40.9093ZM42.2893 66.8357C44.7133 66.8357 46.5013 65.2757 46.5013 62.5877C46.5013 59.8997 44.7253 58.3277 42.3013 58.3277H39.2533V66.8357H42.2893ZM53.6374 60.3557C53.4454 59.3957 52.6534 58.1477 50.5894 58.1477C48.9814 58.1477 47.6254 59.2997 47.6254 60.8117C47.6254 62.0957 48.5014 62.9717 49.8574 63.2477L51.0454 63.4877C51.7054 63.6197 52.0774 64.0037 52.0774 64.4957C52.0774 65.0957 51.5854 65.5397 50.6974 65.5397C49.4974 65.5397 48.9094 64.7837 48.8374 63.9437L47.3014 64.3517C47.4334 65.5637 48.4294 67.0157 50.6854 67.0157C52.6654 67.0157 53.7574 65.6957 53.7574 64.3877C53.7574 63.1877 52.9294 62.1797 51.3814 61.8797L50.1934 61.6517C49.5694 61.5317 49.2694 61.1597 49.2694 60.6917C49.2694 60.1277 49.7974 59.6117 50.6014 59.6117C51.6814 59.6117 52.0654 60.3437 52.1494 60.8117L53.6374 60.3557Z" fill="#004E96"/>
</svg>
