<svg width="98" height="79" viewBox="0 0 98 79" fill="none" xmlns="http://www.w3.org/2000/svg">
<g clip-path="url(#clip0_924_11773)">
<path d="M92.6851 5.47656H80.2076V2.44596C80.2076 1.60952 79.526 0.930664 78.686 0.930664H65.1434C64.3035 0.930664 63.6218 1.60952 63.6218 2.44596C63.6218 3.28241 64.3035 3.96126 65.1434 3.96126H77.1644V13.9622H39.4277V3.96126H51.4487C52.2886 3.96126 52.9703 3.28241 52.9703 2.44596C52.9703 1.60952 52.2886 0.930664 51.4487 0.930664H37.9061C37.0661 0.930664 36.3844 1.60952 36.3844 2.44596V5.47656H23.907C21.3902 5.47656 19.342 7.51615 19.342 10.0225V32.4489C19.342 35.6477 21.2 38.6298 24.0591 40.1648V75.4834H20.8637C20.0237 75.4834 19.342 76.1622 19.342 76.9987C19.342 77.8351 20.0237 78.514 20.8637 78.514H95.7284C96.5683 78.514 97.25 77.8351 97.25 76.9987C97.25 76.1622 96.5683 75.4834 95.7284 75.4834H92.5329V40.1648C95.3023 38.6843 97.25 35.8128 97.25 32.4489V10.0225C97.25 7.51615 95.2019 5.47656 92.6851 5.47656ZM23.907 8.50716H36.3844V15.4775C36.3844 16.314 37.0661 16.9928 37.9061 16.9928H78.686C79.526 16.9928 80.2076 16.314 80.2076 15.4775V8.50716H92.6851C93.5235 8.50716 94.2067 9.18753 94.2067 10.0225V20.0234H22.3853V10.0225C22.3853 9.18753 23.0685 8.50716 23.907 8.50716ZM37.2974 23.054H49.1662V32.4489C49.1662 35.6189 46.4425 38.207 43.2318 38.207C40.0211 38.207 37.2974 35.5704 37.2974 32.4489V23.054ZM52.2095 23.054H64.3826V32.4489C64.3826 35.6462 61.4687 38.207 58.296 38.207C55.1234 38.207 52.2095 35.5704 52.2095 32.4489V23.054ZM67.4259 23.054H79.2947V32.4489C79.2947 35.6189 76.5709 38.207 73.3603 38.207C70.1496 38.207 67.4259 35.5704 67.4259 32.4489V23.054ZM22.3853 23.054H34.2541V32.4489C34.2541 35.6189 31.5304 38.207 28.3197 38.207C25.1091 38.207 22.3853 35.5643 22.3853 32.4489V23.054ZM44.2969 65.4824H33.189V50.3294H44.2969V65.4824ZM33.189 68.513H44.2969V75.4834H33.189V68.513ZM47.3402 75.4834V48.8141C47.3402 47.9777 46.6585 47.2988 45.8186 47.2988H31.6673C30.8274 47.2988 30.1457 47.9777 30.1457 48.8141V75.4834H27.1024V41.1543C27.5041 41.2088 27.9104 41.2376 28.3197 41.2376C31.4239 41.2376 34.1552 39.6647 35.7758 37.3175C37.3948 39.6632 40.1246 41.2376 43.2318 41.2376C46.339 41.2376 49.0962 39.6511 50.7167 37.2736C52.3723 39.642 55.1812 41.2376 58.296 41.2376C61.1887 41.2376 64.1102 39.8056 65.8814 37.2827C67.5202 39.6799 70.2744 41.2376 73.3603 41.2376C76.4462 41.2376 79.1958 39.6647 80.8163 37.3175C82.4353 39.6632 85.1652 41.2376 88.2723 41.2376C88.6817 41.2376 89.0879 41.2088 89.4897 41.1543V75.4834H47.3402ZM94.2067 32.4489C94.2067 35.6522 91.4434 38.207 88.2723 38.207C85.1012 38.207 82.3379 35.5704 82.3379 32.4489V23.054H94.2067V32.4489Z" fill="#E02826"/>
<path d="M62.8289 66.0039H14.3022V78.6142H62.8289V66.0039Z" fill="white"/>
<path d="M84.9247 47.2988H53.579C52.739 47.2988 52.0573 47.9777 52.0573 48.8141V66.9977C52.0573 67.8342 52.739 68.513 53.579 68.513H84.9247C85.7647 68.513 86.4464 67.8342 86.4464 66.9977V48.8141C86.4464 47.9777 85.7647 47.2988 84.9247 47.2988ZM83.4031 65.4824H77.0122V62.4518H78.686C79.526 62.4518 80.2077 61.773 80.2077 60.9365C80.2077 60.1001 79.526 59.4212 78.686 59.4212H72.4473C71.6073 59.4212 70.9257 60.1001 70.9257 60.9365C70.9257 61.773 71.6073 62.4518 72.4473 62.4518H73.9689V65.4824H64.5348V62.4518H66.2086C67.0485 62.4518 67.7302 61.773 67.7302 60.9365C67.7302 60.1001 67.0485 59.4212 66.2086 59.4212H59.8177C58.9777 59.4212 58.296 60.1001 58.296 60.9365C58.296 61.773 58.9777 62.4518 59.8177 62.4518H61.4915V65.4824H55.1006V50.3294H83.4031V65.4824Z" fill="#E02826"/>
<path d="M53.6185 76.862C60.2575 70.5296 68.2993 65.1291 66.1493 51.999C63.9992 38.8689 39.1888 40.5009 39.0306 57.1207C38.9378 66.9914 50.6255 74.9997 53.6185 76.862Z" fill="white"/>
<path d="M63.844 46.7394C60.927 43.8345 57.0483 42.2344 52.9232 42.2344C48.798 42.2344 44.9193 43.8345 42.0024 46.7394C39.0854 49.6442 37.4785 53.5067 37.4785 57.6147C37.4785 65.9261 45.3697 72.8373 49.609 76.5513C50.1979 77.0681 50.7077 77.5136 51.1124 77.8894C51.6206 78.3621 52.2719 78.5985 52.9232 78.5985C53.5744 78.5985 54.2272 78.3621 54.7339 77.8894C55.1387 77.512 55.6484 77.0665 56.2373 76.5513C60.4766 72.8373 68.3678 65.9246 68.3678 57.6147C68.3678 53.5067 66.761 49.6442 63.844 46.7394ZM54.8237 74.9527C54.2211 75.48 53.7022 75.9361 53.2731 76.3347C53.0768 76.518 52.768 76.518 52.5701 76.3347C52.141 75.9361 51.6222 75.48 51.0196 74.9527C47.0344 71.4615 39.6149 64.9623 39.6149 57.6147C39.6149 50.267 45.5843 44.3649 52.9201 44.3649C60.256 44.3649 66.2253 50.3094 66.2253 57.6147C66.2253 64.9623 58.8073 71.4615 54.8207 74.9527H54.8237Z" fill="#004E96"/>
<path d="M52.9215 50.2568C49.1692 50.2568 46.1152 53.298 46.1152 57.0348C46.1152 60.7715 49.1692 63.8127 52.9215 63.8127C56.6739 63.8127 59.7278 60.7715 59.7278 57.0348C59.7278 53.298 56.6739 50.2568 52.9215 50.2568ZM52.9215 61.6822C50.3484 61.6822 48.2547 59.5971 48.2547 57.0348C48.2547 54.4724 50.3484 52.3873 52.9215 52.3873C55.4946 52.3873 57.5884 54.4724 57.5884 57.0348C57.5884 59.5971 55.4946 61.6822 52.9215 61.6822Z" fill="#004E96"/>
<path d="M17.0611 78.0745C24.1215 71.3405 32.6746 65.596 30.3876 51.6326C28.1006 37.6691 1.71533 39.4056 1.54795 57.0801C1.44904 67.578 13.8793 76.094 17.0611 78.0745Z" fill="white"/>
<path d="M28.2893 44.7183C25.1866 41.6286 21.063 39.9269 16.6746 39.9269C12.2862 39.9269 8.16253 41.6286 5.05991 44.7183C1.9588 47.8079 0.25 51.9144 0.25 56.2845C0.25 65.1233 8.64185 72.474 13.1505 76.4229C13.7774 76.9714 14.3176 77.4457 14.7497 77.8472C15.2899 78.3503 15.9822 78.6003 16.6761 78.6003C17.37 78.6003 18.0623 78.3488 18.6025 77.8472C19.0331 77.4457 19.5748 76.9729 20.2017 76.4229C24.7104 72.474 33.1022 65.1217 33.1022 56.2845C33.1022 51.9159 31.3934 47.8079 28.2908 44.7183H28.2893ZM18.6968 74.7227C18.0562 75.2833 17.5039 75.7682 17.0474 76.1925C16.8374 76.3865 16.5102 76.388 16.3003 76.1925C15.8438 75.7682 15.2914 75.2833 14.6508 74.7227C10.413 71.0102 2.52333 64.0989 2.52333 56.2845C2.52333 48.4701 8.87161 42.1938 16.6731 42.1938C24.4745 42.1938 30.8228 48.5156 30.8228 56.2845C30.8228 64.0989 22.9331 71.0102 18.6953 74.7227H18.6968Z" fill="#004E96"/>
<path d="M16.6746 48.458C12.6833 48.458 9.43616 51.6917 9.43616 55.6663C9.43616 59.6409 12.6833 62.8746 16.6746 62.8746C20.6659 62.8746 23.913 59.6409 23.913 55.6663C23.913 51.6917 20.6659 48.458 16.6746 48.458ZM16.6746 60.6092C13.9372 60.6092 11.711 58.3923 11.711 55.6663C11.711 52.9403 13.9372 50.7234 16.6746 50.7234C19.412 50.7234 21.6382 52.9403 21.6382 55.6663C21.6382 58.3923 19.412 60.6092 16.6746 60.6092Z" fill="#004E96"/>
<path d="M58.296 3.96126C59.1364 3.96126 59.8176 3.28284 59.8176 2.44596C59.8176 1.60909 59.1364 0.930664 58.296 0.930664C57.4556 0.930664 56.7744 1.60909 56.7744 2.44596C56.7744 3.28284 57.4556 3.96126 58.296 3.96126Z" fill="black"/>
<path d="M34.4628 77.6614C43.7068 68.8438 54.9045 61.3234 51.9099 43.0413C48.9154 24.7592 14.3696 27.0322 14.1504 50.1723C14.0196 63.9161 30.2966 75.0672 34.4628 77.6614Z" fill="white"/>
<path d="M48.165 35.5492C44.1935 31.5943 38.9119 29.4153 33.2955 29.4153C27.6791 29.4153 22.3975 31.5943 18.4245 35.5492C14.453 39.5041 12.2649 44.7637 12.2649 50.3567C12.2649 61.673 23.0092 71.0845 28.7808 76.141C29.5827 76.8441 30.275 77.4502 30.8274 77.9639C31.5182 78.6064 32.4068 78.9292 33.294 78.9292C34.1811 78.9292 35.0682 78.6079 35.7605 77.9639C36.3129 77.4502 37.0052 76.8441 37.8071 76.141C43.5787 71.0845 54.323 61.673 54.323 50.3567C54.323 44.7637 52.1349 39.5041 48.1634 35.5492H48.165ZM35.8838 73.9635C35.0636 74.6818 34.3561 75.3016 33.7733 75.844C33.5055 76.0925 33.0855 76.0941 32.8177 75.844C32.2334 75.3016 31.5258 74.6803 30.7072 73.9635C25.281 69.21 15.1788 60.3607 15.1788 50.3567C15.1788 40.3527 23.3059 32.3156 33.2955 32.3156C43.285 32.3156 51.4121 40.4088 51.4121 50.3567C51.4121 60.3607 41.3115 69.21 35.8838 73.9635Z" fill="#004E96"/>
<path d="M33.2939 40.3372C28.1842 40.3372 24.0271 44.477 24.0271 49.5653C24.0271 54.6537 28.1842 58.7935 33.2939 58.7935C38.4036 58.7935 42.5607 54.6537 42.5607 49.5653C42.5607 44.477 38.4036 40.3372 33.2939 40.3372ZM33.2939 55.8947C29.7896 55.8947 26.9395 53.0551 26.9395 49.5668C26.9395 46.0786 29.7911 43.239 33.2939 43.239C36.7967 43.239 39.6483 46.0786 39.6483 49.5668C39.6483 53.0551 36.7982 55.8947 33.2939 55.8947Z" fill="#004E96"/>
</g>
<defs>
<clipPath id="clip0_924_11773">
<rect width="97" height="78" fill="white" transform="translate(0.25 0.930664)"/>
</clipPath>
</defs>
</svg>
