<svg width="112" height="94" viewBox="0 0 112 94" fill="none" xmlns="http://www.w3.org/2000/svg">
<g clip-path="url(#clip0_956_11974)">
<path d="M0.00872803 92.5932L5.60873 51.4399C5.66779 51.0053 6.04185 50.6213 6.60184 50.4193L28.0678 42.6873C28.1072 42.672 28.1531 42.6764 28.1947 42.6632C28.3172 42.6259 28.4462 42.6105 28.5818 42.5908C28.7109 42.5732 28.8334 42.5535 28.9647 42.5535C28.9953 42.5535 29.0193 42.5447 29.05 42.5447C29.155 42.5491 29.2447 42.582 29.3453 42.5995C29.4459 42.6149 29.5531 42.6083 29.6494 42.6369L36.295 44.5419C37.2465 44.814 37.6972 45.5668 37.3012 46.223C36.9053 46.8793 35.8137 47.1909 34.8622 46.9166L30.6337 45.7051L27.149 84.0996L54.134 90.8725V64.1627C54.134 63.4516 54.9697 62.8766 56 62.8766C57.0303 62.8766 57.8659 63.4516 57.8659 64.1627V90.8725L84.8509 84.0996L81.3662 45.7051L77.1378 46.9166C76.184 47.1887 75.0925 46.8793 74.6987 46.223C74.3028 45.5668 74.7534 44.814 75.705 44.5419L82.3506 42.6369C82.4468 42.6083 82.554 42.6149 82.6547 42.5995C82.7553 42.5842 82.845 42.5491 82.95 42.5447C82.9806 42.5447 83.0047 42.5535 83.0353 42.5535C83.1709 42.5535 83.2978 42.5732 83.4312 42.593C83.5559 42.6105 83.6784 42.6259 83.7922 42.6588C83.8381 42.672 83.8884 42.6698 83.9322 42.6851L105.398 50.4193C105.958 50.6213 106.332 51.0053 106.391 51.4399L111.991 92.5932C112.055 93.054 111.751 93.504 111.199 93.7695C110.648 94.0329 109.928 94.0746 109.325 93.8727L86.6993 86.3755L56.6387 93.921C56.2275 94.0263 55.7725 94.0263 55.3612 93.921L25.3006 86.3755L2.67529 93.8727C2.41935 93.9583 2.14153 94 1.86591 94C1.49184 94 1.11778 93.921 0.798409 93.7695C0.247162 93.504 -0.0569 93.054 0.00653076 92.5932H0.00872803ZM88.5959 84.1501L107.966 90.5696L102.769 52.377L85.1353 46.0255L88.5959 84.1501ZM23.404 84.1501L26.8647 46.0255L9.23122 52.377L4.03372 90.5696L23.404 84.1501Z" fill="#E02826"/>
<path d="M87.4715 20.8674C76.6894 20.8674 68.8319 31.2046 69.4356 39.843C71.2534 55.6077 87.2069 64.459 87.2069 64.459C87.2069 64.459 102.449 56.9575 104.53 36.8889C101.367 20.8674 87.4715 20.8674 87.4715 20.8674Z" fill="white"/>
<path d="M73.1937 25.2986C76.8053 21.6904 81.6069 19.7042 86.7125 19.7042C91.8181 19.7042 96.6197 21.6926 100.231 25.2986C103.843 28.9067 105.831 33.7044 105.831 38.8049C105.831 49.1267 96.0641 57.7102 90.8162 62.3236C90.0878 62.9644 89.4578 63.5175 88.9547 63.9872C88.3269 64.5731 87.5197 64.8672 86.7125 64.8672C85.9053 64.8672 85.1003 64.5731 84.4703 63.9872C83.9672 63.5197 83.3394 62.9666 82.6087 62.3236C77.3609 57.7124 67.5937 49.1267 67.5937 38.8049C67.5937 33.7044 69.5822 28.9067 73.1937 25.2986ZM84.3587 60.3373C85.1047 60.9914 85.7478 61.5576 86.2772 62.0514C86.52 62.2775 86.9028 62.2797 87.1456 62.0514C87.6772 61.5576 88.3203 60.9892 89.0641 60.3373C93.9969 56.0006 103.18 47.9306 103.18 38.8049C103.18 29.6792 95.7906 22.3489 86.7103 22.3489C77.63 22.3489 70.2406 29.7297 70.2406 38.8049C70.2406 47.8801 79.4237 56.0006 84.3566 60.3373H84.3587Z" fill="#004E96"/>
<path d="M86.7147 29.666C91.3609 29.666 95.1387 33.4409 95.1387 38.0828C95.1387 42.7246 91.3587 46.4995 86.7147 46.4995C82.0706 46.4995 78.2906 42.7246 78.2906 38.0828C78.2906 33.4409 82.0706 29.666 86.7147 29.666ZM86.7147 43.8571C89.8997 43.8571 92.4919 41.2673 92.4919 38.085C92.4919 34.9026 89.8997 32.3129 86.7147 32.3129C83.5297 32.3129 80.9375 34.9026 80.9375 38.085C80.9375 41.2673 83.5275 43.8571 86.7147 43.8571Z" fill="#004E96"/>
<path d="M25.7709 20.8674C14.9887 20.8674 7.13122 31.2046 7.73497 39.843C9.55278 55.6077 25.5062 64.459 25.5062 64.459C25.5062 64.459 40.7487 56.9575 42.829 36.8889C39.6659 20.8674 25.7709 20.8674 25.7709 20.8674Z" fill="white"/>
<path d="M11.8847 25.2986C15.4963 21.6904 20.2978 19.7042 25.4035 19.7042C30.5091 19.7042 35.3107 21.6926 38.9222 25.2986C42.5338 28.9067 44.5222 33.7044 44.5222 38.8049C44.5222 49.1267 34.755 57.7102 29.5072 62.3236C28.7788 62.9644 28.1488 63.5175 27.6457 63.9872C27.0178 64.5731 26.2107 64.8672 25.4035 64.8672C24.5963 64.8672 23.7913 64.5731 23.1613 63.9872C22.6582 63.5197 22.0303 62.9666 21.2997 62.3236C16.0519 57.7124 6.28472 49.1267 6.28472 38.8049C6.28472 33.7044 8.27316 28.9067 11.8847 25.2986ZM23.0497 60.3373C23.7957 60.9914 24.4388 61.5576 24.9682 62.0514C25.211 62.2775 25.5938 62.2797 25.8366 62.0514C26.3682 61.5576 27.0113 60.9892 27.755 60.3373C32.6878 56.0006 41.871 47.9306 41.871 38.8049C41.871 29.6792 34.4816 22.3489 25.4013 22.3489C16.321 22.3489 8.93159 29.7297 8.93159 38.8049C8.93159 47.8801 18.1147 56.0006 23.0475 60.3373H23.0497Z" fill="#004E96"/>
<path d="M25.4035 29.666C30.0497 29.666 33.8275 33.4409 33.8275 38.0828C33.8275 42.7246 30.0475 46.4995 25.4035 46.4995C20.7594 46.4995 16.9794 42.7246 16.9794 38.0828C16.9794 33.4409 20.7594 29.666 25.4035 29.666ZM25.4035 43.8571C28.5884 43.8571 31.1806 41.2673 31.1806 38.085C31.1806 34.9026 28.5884 32.3129 25.4035 32.3129C22.2184 32.3129 19.6263 34.9026 19.6263 38.085C19.6263 41.2673 22.2163 43.8571 25.4035 43.8571Z" fill="#004E96"/>
<path d="M56.6388 1.60876C42.7306 1.60876 32.5959 14.5313 33.3725 25.3315C35.7153 45.0423 56.2953 56.1081 56.2953 56.1081C56.2953 56.1081 75.9566 46.7301 78.6406 21.6378C74.5631 1.60876 56.6388 1.60876 56.6388 1.60876Z" fill="white"/>
<path d="M38.9944 7.09115C43.5706 2.51954 49.6562 0 56.1269 0C62.5975 0 68.6853 2.51954 73.2637 7.09115C77.84 11.6628 80.3622 17.7443 80.3622 24.21C80.3622 37.2927 67.9809 48.1742 61.3309 54.0187C60.4078 54.8308 59.6094 55.5331 58.9728 56.1257C58.1766 56.8675 57.1528 57.2406 56.1312 57.2406C55.1097 57.2406 54.0859 56.8697 53.2897 56.1257C52.6531 55.5309 51.8547 54.8308 50.9316 54.0187C44.2816 48.172 31.9003 37.2927 31.9003 24.21C31.9003 17.7443 34.4225 11.6628 38.9987 7.09115H38.9944ZM53.1453 51.5036C54.0903 52.3332 54.9062 53.0509 55.5778 53.6785C55.8862 53.9661 56.3697 53.9683 56.6781 53.6785C57.3519 53.0509 58.1678 52.3332 59.1106 51.5036C65.3625 46.008 77.0044 35.7762 77.0044 24.2122C77.0044 12.6482 67.6397 3.35354 56.1269 3.35354C44.6141 3.35354 35.2516 12.7096 35.2516 24.2122C35.2516 35.7147 46.8913 46.008 53.1453 51.5036Z" fill="#004E96"/>
<path d="M56.1291 12.6262C62.0178 12.6262 66.8063 17.4129 66.8063 23.2948C66.8063 29.1766 62.0156 33.9633 56.1291 33.9633C50.2425 33.9633 45.4519 29.1766 45.4519 23.2948C45.4519 17.4129 50.2425 12.6262 56.1291 12.6262ZM56.1291 30.612C60.1672 30.612 63.4507 27.3287 63.4507 23.297C63.4507 19.2653 60.165 15.982 56.1291 15.982C52.0932 15.982 48.8075 19.2653 48.8075 23.297C48.8075 27.3287 52.091 30.612 56.1291 30.612Z" fill="#004E96"/>
</g>
<defs>
<clipPath id="clip0_956_11974">
<rect width="112" height="94" fill="white" transform="matrix(-1 0 0 1 112 0)"/>
</clipPath>
</defs>
</svg>
