<svg width="82" height="82" viewBox="0 0 82 82" fill="none" xmlns="http://www.w3.org/2000/svg">
<g clip-path="url(#clip0_328_8566)">
<path d="M76.4682 68.3765H69.4434V65.2757C72.4968 65.2443 74.9717 62.7517 74.9717 59.6909V54.9501L77.2507 49.5724C77.5246 48.9259 77.6635 48.242 77.6635 47.5399C77.6635 44.6673 75.3264 42.3305 72.454 42.3305H61.7538C58.3571 42.3305 55.5936 45.094 55.5936 48.4907V59.6911C55.5936 62.7518 58.0683 65.2445 61.122 65.2759V68.3767H57.1513C56.2491 66.5438 54.3625 65.2792 52.1853 65.2792L45.1609 65.2788V62.1775C48.2142 62.1461 50.6891 59.6534 50.6891 56.5927V42.4933C50.6891 39.8637 48.5499 37.7244 45.9203 37.7244H36.0802C33.4506 37.7244 31.3113 39.8637 31.3113 42.4933V56.5927C31.3113 59.6534 33.7861 62.1461 36.8396 62.1775V65.2788L29.8152 65.2792C27.638 65.2792 25.7514 66.5438 24.8492 68.3767H20.878V65.2759C23.9315 65.2445 26.4064 62.7518 26.4064 59.6911V57.0749C26.4064 56.4116 25.8688 55.8738 25.2052 55.8738C24.5417 55.8738 24.0041 56.4116 24.0041 57.0749V59.6909C24.0041 61.4466 22.5756 62.8748 20.82 62.8748H12.6147C10.8591 62.8748 9.4308 61.4466 9.4308 59.6909V52.6543H25.2052C25.8688 52.6543 26.4064 52.1165 26.4064 51.4531V47.0993C26.4064 44.4697 24.267 42.3303 21.6374 42.3303H11.7974C9.16782 42.3303 7.02862 44.4697 7.02862 47.0993V59.6909C7.02862 62.7517 9.50335 65.2443 12.5569 65.2757V68.3765H5.5318C2.48146 68.3765 0 70.8588 0 73.9099V77.4109C0 79.4942 1.69413 81.189 3.77648 81.189H65.2826C65.9461 81.189 66.4837 80.6512 66.4837 79.9878C66.4837 79.9877 66.4837 79.9877 66.4837 79.9875C66.4837 79.9874 66.4837 79.9874 66.4837 79.9872V72.904L68.7221 70.779H76.4682C78.1937 70.779 79.5977 72.1836 79.5977 73.9101V77.4111C79.5977 78.1697 78.9812 78.7868 78.2235 78.7868H70.9021C70.2386 78.7868 69.701 79.3246 69.701 79.988C69.701 80.6514 70.2386 81.1892 70.9021 81.1892H78.2235C80.3059 81.1892 82 79.4942 82 77.4111V73.9101C82 70.8588 79.5185 68.3765 76.4682 68.3765ZM9.4308 47.0993C9.4308 45.7943 10.4925 44.7326 11.7973 44.7326H21.6373C22.9422 44.7326 24.0039 45.7943 24.0039 47.0993V50.2519H9.4308V47.0993ZM57.9959 48.4905C57.9959 46.4184 59.6816 44.7326 61.7538 44.7326H72.454C74.002 44.7326 75.2611 45.992 75.2611 47.5397C75.2611 47.918 75.1861 48.2867 75.0387 48.635L73.1338 53.1298L63.4153 48.9946C63.0777 48.8764 62.6506 48.8221 62.2249 49.1384L57.9958 52.3056V48.4905H57.9959ZM57.9959 59.6909V55.3073L63.1113 51.4762L72.5692 55.5006V59.6909C72.5692 61.4466 71.1409 62.8748 69.3853 62.8748H61.18C59.4244 62.8748 57.9959 61.4466 57.9959 59.6909ZM61.8432 70.7789L64.0814 72.9038V78.7867H57.4567C57.6241 78.36 57.7171 77.8962 57.7171 77.4109V70.8109C57.7171 70.8002 57.7163 70.7896 57.7163 70.7789H61.8432ZM42.7584 66.0514L41 68.2039L39.2416 66.0514V62.1786H42.7585V66.0514H42.7584ZM37.4711 67.6813L39.7988 70.5308V78.7859H37.9828L35.24 67.6813H37.4711ZM42.2012 78.7859V70.5308L44.5289 67.6813H46.7599L44.017 78.7859H42.2012ZM36.0798 40.1264H45.92C47.2248 40.1264 48.2865 41.1881 48.2865 42.493V45.7943L47.5515 44.5797C46.8875 43.4823 45.6783 42.8007 44.3956 42.8007H37.604C36.3214 42.8007 35.1122 43.4823 34.4482 44.5797L33.7132 45.7943V42.493C33.7134 41.1881 34.775 40.1264 36.0798 40.1264ZM33.7134 56.5924V50.4352L36.5038 45.8236C36.7352 45.4409 37.1569 45.2032 37.6042 45.2032H44.3958C44.8431 45.2032 45.2648 45.4409 45.4962 45.8236L48.2866 50.4352V56.5924C48.2866 58.348 46.8584 59.7763 45.1027 59.7763H36.8973C35.1416 59.7763 33.7134 58.3478 33.7134 56.5924ZM24.5433 78.7867H17.9186V72.9038L20.1568 70.7789H24.2839C24.2839 70.7896 24.2831 70.8002 24.2831 70.8109V77.4109C24.2829 77.8962 24.3759 78.36 24.5433 78.7867ZM18.4756 65.2772V69.0621L16.7173 70.7315L14.9589 69.0621V65.2772H18.4756ZM2.40234 77.4108V73.9097C2.40234 72.1833 3.80627 70.7787 5.5318 70.7787H13.2779L15.5163 72.9037V78.7865H3.77648C3.01879 78.7867 2.40234 78.1694 2.40234 77.4108ZM28.0594 78.7867C27.3017 78.7867 26.6852 78.1694 26.6852 77.4109V70.8109C26.6852 69.0854 28.0892 67.6814 29.8147 67.6814H32.7654L35.5084 78.7867H28.0594ZM46.4916 78.7867L49.2346 67.6814H52.1853C53.9108 67.6814 55.3148 69.0854 55.3148 70.8109V77.4109C55.3148 78.1696 54.6983 78.7867 53.9406 78.7867H46.4916ZM67.0411 69.0621L65.2827 70.7315L63.5244 69.0621V65.2772H67.0411V69.0621Z" fill="#E02826"/>
<path d="M15.071 29.6105C15.071 30.2963 15.3382 30.9412 15.8229 31.426L17.741 33.3441C18.2416 33.8445 18.8991 34.0949 19.5567 34.0949C20.2143 34.0949 20.8717 33.8445 21.3724 33.3441L32.4086 22.3077L38.92 28.8193C39.6612 29.5604 40.6465 29.9686 41.6946 29.9686C42.7427 29.9686 43.7279 29.5605 44.4691 28.8193L48.3324 24.956C48.8015 24.4869 48.8015 23.7264 48.3324 23.2574C47.8632 22.7883 47.1027 22.7883 46.6336 23.2574L42.7704 27.1207C42.1773 27.7139 41.212 27.7139 40.6188 27.1207L33.2579 19.7598C33.0325 19.5344 32.7271 19.4079 32.4084 19.4079C32.0897 19.4079 31.7844 19.5344 31.5589 19.7598L19.6733 31.6454C19.6089 31.7098 19.504 31.7098 19.4396 31.6454L17.5216 29.7274C17.4572 29.663 17.4572 29.5581 17.5216 29.4937L31.3325 15.6828C31.9255 15.0896 32.891 15.0898 33.4842 15.6828L40.845 23.0438C41.0703 23.2691 41.3757 23.3956 41.6944 23.3956C42.0131 23.3956 42.3184 23.2691 42.5439 23.0438L54.3338 11.2539C54.8029 10.7848 54.8029 10.0242 54.3338 9.55525L50.7383 5.95974C50.6116 5.83306 50.6212 5.69436 50.6515 5.60019C50.6819 5.50618 50.7553 5.38782 50.9321 5.35915L64.1147 3.21819C64.2715 3.19256 64.3742 3.2696 64.4222 3.31748C64.4702 3.36537 64.5468 3.46915 64.5215 3.62498L62.3805 16.8074C62.3519 16.9843 62.2337 17.0576 62.1395 17.0879C62.0453 17.1183 61.9068 17.1279 61.7801 17.0012L58.1844 13.4056C57.7152 12.9365 56.9548 12.9365 56.4857 13.4056L50.6012 19.29C50.1321 19.7591 50.1321 20.5197 50.6012 20.9886C51.0705 21.4577 51.8309 21.4577 52.3 20.9886L57.335 15.9535L60.0812 18.6997C60.8164 19.435 61.8876 19.6935 62.8773 19.3738C63.8669 19.0544 64.5851 18.2186 64.7518 17.1921L66.8928 4.00952C67.0344 3.13715 66.7458 2.24315 66.1208 1.61822C65.4959 0.993455 64.6019 0.704533 63.7295 0.846592L50.5469 2.98756C49.5206 3.15428 48.6846 3.87242 48.3653 4.86203C48.0459 5.85147 48.3042 6.92292 49.0394 7.65804L51.7856 10.4042L41.6943 20.4955L35.1831 13.9839C33.6533 12.4542 31.164 12.4541 29.634 13.9839L15.8231 27.7948C15.3382 28.2799 15.071 28.9247 15.071 29.6105Z" fill="#004E96"/>
<path d="M19.5552 6.54901H20.5075V7.50146C20.5075 8.16482 21.0452 8.70263 21.7087 8.70263C22.3722 8.70263 22.9099 8.16482 22.9099 7.50146V6.54901H23.8623C24.5258 6.54901 25.0635 6.0112 25.0635 5.34783C25.0635 4.68447 24.5258 4.14666 23.8623 4.14666H22.9099V3.19421C22.9099 2.53085 22.3722 1.99304 21.7087 1.99304C21.0452 1.99304 20.5075 2.53085 20.5075 3.19421V4.14666H19.5552C18.8917 4.14666 18.3541 4.68447 18.3541 5.34783C18.3541 6.0112 18.8917 6.54901 19.5552 6.54901Z" fill="#E02826"/>
<path d="M41.0053 56.2416C41.4979 56.2416 42.0618 56.1604 42.6562 55.9224C43.2382 55.6895 43.5792 55.0518 43.3991 54.4513C43.1914 53.758 42.4388 53.4126 41.7873 53.6823C40.9853 54.0148 40.2859 53.7146 40.2564 53.7016L40.1225 53.6488C39.5383 53.4185 38.8752 53.6783 38.6028 54.2441C38.2958 54.882 38.6058 55.6471 39.2708 55.89C39.8876 56.1154 40.3912 56.2416 41.0053 56.2416Z" fill="#E02826"/>
<path d="M16.7227 60.2772C17.2154 60.2772 17.7793 60.196 18.3734 59.9582C18.9555 59.7252 19.2963 59.0874 19.1163 58.487C18.9084 57.7939 18.1561 57.4484 17.5046 57.7181C16.7021 58.0507 16.0033 57.7504 15.9738 57.7375L15.7406 57.626C15.1468 57.3421 14.435 57.5922 14.1495 58.1853C13.8538 58.7993 14.1331 59.5325 14.7589 59.8024C15.5083 60.1256 16.0489 60.2772 16.7227 60.2772Z" fill="#E02826"/>
<path d="M65.288 60.2772C65.7807 60.2772 66.3444 60.196 66.9386 59.9582C67.5206 59.7252 67.8616 59.0874 67.6816 58.487C67.4738 57.7937 66.7213 57.4482 66.0699 57.7181C65.2674 58.0507 64.5686 57.7505 64.5391 57.7375L64.2733 57.6417C63.6938 57.4329 63.0505 57.696 62.7833 58.2509C62.4741 58.8935 62.7885 59.665 63.4606 59.9031C64.1376 60.1429 64.654 60.2772 65.288 60.2772Z" fill="#E02826"/>
<path d="M14.912 14.8264C15.5754 14.8264 16.1132 14.2886 16.1132 13.6252C16.1132 12.9619 15.5754 12.4241 14.912 12.4241C14.2486 12.4241 13.7108 12.9619 13.7108 13.6252C13.7108 14.2886 14.2486 14.8264 14.912 14.8264Z" fill="#E02826"/>
</g>
<defs>
<clipPath id="clip0_328_8566">
<rect width="82" height="82" fill="white"/>
</clipPath>
</defs>
</svg>
